<mxfile host="Electron" agent="Mozilla/5.0 (Windows NT 10.0; Win64; x64) AppleWebKit/537.36 (KHTML, like Gecko) draw.io/24.7.17 Chrome/128.0.6613.36 Electron/32.0.1 Safari/537.36" version="24.7.17">
  <diagram name="Page-1" id="HCvYOMPPYlKTWFCbGoWI">
    <mxGraphModel dx="2745" dy="2050" grid="1" gridSize="10" guides="1" tooltips="1" connect="1" arrows="1" fold="1" page="1" pageScale="1" pageWidth="850" pageHeight="1100" math="0" shadow="0">
      <root>
        <mxCell id="0" />
        <mxCell id="1" parent="0" />
        <mxCell id="CH_FWOBNlCatDVMvBsIb-1" value="&lt;span style=&quot;font-size: 23px;&quot;&gt;Nhà phát triển&lt;/span&gt;" style="shape=umlActor;verticalLabelPosition=bottom;verticalAlign=top;html=1;" vertex="1" parent="1">
          <mxGeometry x="190" y="835" width="80" height="160" as="geometry" />
        </mxCell>
        <mxCell id="CH_FWOBNlCatDVMvBsIb-4" value="" style="rounded=0;whiteSpace=wrap;html=1;" vertex="1" parent="1">
          <mxGeometry x="470" y="515" width="840" height="800" as="geometry" />
        </mxCell>
        <mxCell id="CH_FWOBNlCatDVMvBsIb-18" value="&lt;font style=&quot;font-size: 23px;&quot;&gt;Mystic Forest&lt;/font&gt;" style="text;align=center;fontStyle=1;verticalAlign=middle;spacingLeft=3;spacingRight=3;strokeColor=none;rotatable=0;points=[[0,0.5],[1,0.5]];portConstraint=eastwest;html=1;" vertex="1" parent="1">
          <mxGeometry x="870" y="515" width="80" height="26" as="geometry" />
        </mxCell>
        <mxCell id="CH_FWOBNlCatDVMvBsIb-20" value="&lt;font style=&quot;font-size: 23px;&quot;&gt;Cân bằng game&lt;/font&gt;" style="ellipse;whiteSpace=wrap;html=1;" vertex="1" parent="1">
          <mxGeometry x="790" y="650" width="240" height="120" as="geometry" />
        </mxCell>
        <mxCell id="CH_FWOBNlCatDVMvBsIb-22" value="&lt;font style=&quot;font-size: 23px;&quot;&gt;Bảo trì&lt;/font&gt;" style="ellipse;whiteSpace=wrap;html=1;" vertex="1" parent="1">
          <mxGeometry x="790" y="1040" width="230" height="140" as="geometry" />
        </mxCell>
        <mxCell id="CH_FWOBNlCatDVMvBsIb-23" value="" style="endArrow=none;html=1;rounded=0;" edge="1" parent="1" source="CH_FWOBNlCatDVMvBsIb-1" target="CH_FWOBNlCatDVMvBsIb-20">
          <mxGeometry width="50" height="50" relative="1" as="geometry">
            <mxPoint x="430" y="1030" as="sourcePoint" />
            <mxPoint x="480" y="980" as="targetPoint" />
          </mxGeometry>
        </mxCell>
        <mxCell id="CH_FWOBNlCatDVMvBsIb-24" value="" style="endArrow=none;html=1;rounded=0;" edge="1" parent="1" source="CH_FWOBNlCatDVMvBsIb-1" target="CH_FWOBNlCatDVMvBsIb-22">
          <mxGeometry width="50" height="50" relative="1" as="geometry">
            <mxPoint x="430" y="1030" as="sourcePoint" />
            <mxPoint x="480" y="980" as="targetPoint" />
          </mxGeometry>
        </mxCell>
      </root>
    </mxGraphModel>
  </diagram>
</mxfile>
